<?xml version="1.0" encoding="UTF-8" standalone="no"?>

<svg
        version="1.1"
        id="Layer_1"
        x="0px"
        y="0px"
        viewBox="0 0 1000 1000"
        enable-background="new 0 0 1000 1000"
        xml:space="preserve"
        xmlns="http://www.w3.org/2000/svg"
><defs
   id="defs14302" />
    <path
            id="XMLID_25_"
            d="m 999.29178,541.91346 c 0.13382,-0.34366 0.25575,-0.68956 0.35167,-1.04356 0.0546,-0.20127 0.0979,-0.40224 0.14009,-0.60536 0.069,-0.33272 0.12116,-0.6669 0.15685,-1.00519 0.021,-0.20371 0.043,-0.40566 0.053,-0.60987 0.016,-0.35311 0,-0.70653 -0.016,-1.0617 -0.01,-0.18467 -0.011,-0.36856 -0.032,-0.55245 -0.048,-0.42138 -0.13186,-0.84092 -0.23312,-1.25976 -0.027,-0.11203 -0.039,-0.22608 -0.0696,-0.33721 -0.004,-0.0131 -0.005,-0.0262 -0.008,-0.0393 -0.14488,-0.51328 -0.33304,-1.00859 -0.55152,-1.48916 -0.062,-0.13633 -0.14403,-0.26504 -0.21225,-0.39941 -0.183,-0.36064 -0.37684,-0.71387 -0.59922,-1.05147 -0.10544,-0.16005 -0.22384,-0.3125 -0.3386,-0.46836 -0.22712,-0.30811 -0.46687,-0.60507 -0.72557,-0.88926 -0.0722,-0.0793 -0.12578,-0.16786 -0.20037,-0.24561 L 508.85197,23.67177 c -0.0126,-0.01274 -0.0274,-0.02164 -0.0397,-0.03426 -0.0984,-0.101093 -0.206,-0.191751 -0.30824,-0.289093 -0.1392,-0.133103 -0.28886,-0.256565 -0.43611,-0.383886 -0.22475,-0.193818 -0.44774,-0.388454 -0.68738,-0.565132 -0.14669,-0.108424 -0.30051,-0.20127 -0.45197,-0.302471 -0.0953,-0.06383 -0.17136,-0.143777 -0.26943,-0.205418 -0.0582,-0.03667 -0.12276,-0.05722 -0.18126,-0.0928 -0.23043,-0.139353 -0.46892,-0.263356 -0.7095,-0.387624 -0.2021,-0.104338 -0.40243,-0.205863 -0.6099,-0.298613 -0.12314,-0.05517 -0.23785,-0.123991 -0.36335,-0.175283 -0.12516,-0.05145 -0.2555,-0.08138 -0.3819,-0.128571 -0.16872,-0.06274 -0.34102,-0.1172 -0.51302,-0.172806 -0.17436,-0.05626 -0.34251,-0.126336 -0.51897,-0.174875 -0.12789,-0.03522 -0.25934,-0.05974 -0.38932,-0.09112 -0.24622,-0.05962 -0.49275,-0.102174 -0.74166,-0.146818 -0.22569,-0.04039 -0.44685,-0.09244 -0.67608,-0.12083 -0.16962,-0.02115 -0.33987,-0.02188 -0.51065,-0.03606 -0.25191,-0.02103 -0.50113,-0.04039 -0.75361,-0.0464 C 500.20766,20.01732 500.10872,20 500.00617,20 c -0.10935,0 -0.21521,0.01839 -0.32429,0.02116 -0.23849,0.006 -0.4746,0.0232 -0.71308,0.04243 -0.18721,0.01527 -0.37378,0.01731 -0.55983,0.04063 -0.21938,0.02765 -0.431,0.08029 -0.64685,0.119003 -0.25576,0.04543 -0.50856,0.08931 -0.76194,0.150678 -0.11417,0.02776 -0.23074,0.04784 -0.34403,0.07886 -0.22954,0.06251 -0.44834,0.151651 -0.6737,0.226995 -0.0969,0.03245 -0.19431,0.06274 -0.28972,0.0976 -0.19857,0.072 -0.39825,0.132982 -0.59382,0.215383 -0.068,0.02861 -0.12998,0.06672 -0.19732,0.09665 -0.24954,0.110349 -0.49071,0.231684 -0.73278,0.358861 -0.2003,0.105178 -0.40061,0.208062 -0.59378,0.323783 -0.0758,0.04531 -0.15856,0.07248 -0.23368,0.119604 -0.0979,0.06167 -0.1741,0.141253 -0.26949,0.205154 -0.16574,0.111069 -0.33178,0.217847 -0.49245,0.337715 -0.19379,0.144462 -0.37204,0.305105 -0.55625,0.46089 -0.19678,0.166724 -0.39353,0.330684 -0.57625,0.507613 -0.0685,0.06636 -0.14398,0.124977 -0.21074,0.193001 -0.0274,0.02789 -0.0606,0.04772 -0.0876,0.07585 L 2.9937362,530.85573 c -0.07423,0.0773 -0.1279017,0.16564 -0.1994463,0.24445 -0.2593301,0.28524 -0.5002081,0.58281 -0.727951,0.89199 -0.1138716,0.15508 -0.231902,0.30664 -0.3368502,0.46582 -0.2226628,0.33818 -0.4173182,0.69209 -0.6003656,1.05331 -0.067965,0.13409 -0.14964388,0.26251 -0.21163366,0.39854 -0.21853018,0.48057 -0.40660498,0.97588 -0.55148454,1.48916 -0.003581,0.0131 -0.004476,0.0262 -0.008054,0.0393 -0.0307184,0.11071 -0.0420372,0.22452 -0.0691493,0.33593 -0.1016578,0.41974 -0.18573206,0.84015 -0.23342868,1.26212 -0.02084719,0.18262 -0.02145299,0.36543 -0.03219348,0.54882 -0.02087418,0.35615 -0.03158768,0.71046 -0.01518704,1.06446 0.00923698,0.204 0.03040307,0.40566 0.05214497,0.60927 0.03577231,0.33897 0.08765457,0.67384 0.15740923,1.00724 0.0417214,0.20215 0.084943,0.40224 0.13922011,0.60263 0.0962881,0.35469 0.21818791,0.70117 0.3520382,1.04532 0.064701,0.16591 0.11805683,0.3331 0.1913916,0.49678 0.22624269,0.50409 0.48528319,0.99569 0.79173089,1.46631 0.00358,0.005 0.00537,0.0108 0.00866,0.016 0.1660428,0.25341 0.359198,0.48301 0.544009,0.72022 0.1174514,0.15118 0.2188196,0.31094 0.3449048,0.45694 0.3311908,0.3831 0.6871248,0.74149 1.0645117,1.07548 0.00419,0.004 0.00745,0.008 0.011922,0.0121 L 491.82046,976.96819 c 0.0698,0.0615 0.15263,0.10241 0.22358,0.162 0.42212,0.35526 0.87255,0.68173 1.35099,0.98008 0.10139,0.063 0.19405,0.13927 0.29719,0.19942 0.5166,0.30087 1.05885,0.57149 1.63152,0.79921 0.0488,0.0195 0.10101,0.0248 0.15019,0.0436 0.50504,0.19345 1.02848,0.32431 1.55462,0.45107 0.22806,0.055 0.44922,0.14043 0.67876,0.18251 0.72765,0.13301 1.46754,0.20196 2.21156,0.20694 0.0263,10e-5 0.0525,0.007 0.0788,0.007 9e-4,0 10e-4,-3e-4 0.003,-3e-4 9e-4,0 10e-4,3e-4 0.003,3e-4 0.0266,0 0.0527,-0.007 0.079,-0.007 0.74372,-0.005 1.48333,-0.0739 2.211,-0.20684 0.231,-0.0423 0.45337,-0.12822 0.68264,-0.18359 0.52492,-0.12656 1.04748,-0.25723 1.5513,-0.45019 0.0492,-0.0189 0.10101,-0.0241 0.14994,-0.0435 0.57235,-0.22773 1.11454,-0.49824 1.63116,-0.79903 0.10379,-0.0606 0.19736,-0.13721 0.29928,-0.20088 0.47786,-0.29795 0.92771,-0.62373 1.34919,-0.97861 0.0709,-0.0597 0.15384,-0.10072 0.22358,-0.1622 L 996.3346,546.15789 c 0.005,-0.004 0.008,-0.008 0.0114,-0.0121 0.37746,-0.33399 0.73334,-0.69238 1.06459,-1.07548 0.12605,-0.146 0.22742,-0.30576 0.34483,-0.45694 0.18488,-0.23721 0.37798,-0.46681 0.54403,-0.72022 0.004,-0.005 0.005,-0.0108 0.009,-0.016 0.30649,-0.47062 0.56551,-0.96222 0.79178,-1.46631 0.0736,-0.16387 0.12697,-0.33127 0.19141,-0.49747 z M 725.19035,474.22798 500.00026,555.64218 274.81854,474.23073 500.00442,55.657653 Z M 749.80608,470.67847 550.23508,99.720244 953.45089,518.65385 Z M 250.19833,470.67793 46.549669,518.65383 449.77408,99.710437 Z m 7.41934,20.96177 230.51652,83.33892 V 943.33084 L 35.588021,543.94647 Z M 511.86633,943.33084 V 574.98311 l 230.52458,-83.34159 222.02165,52.30495 z"
            style="stroke-width:1.66137"/>
    <path
            style="fill:#ff0000;fill-rule:evenodd;stroke:#ffffff;stroke-width:15.3642;stroke-linejoin:bevel;stroke-miterlimit:28.2;paint-order:markers stroke fill"
            d="M 63.9406,501.48025 C 172.31199,388.53753 445.07202,105.52909 445.34243,105.748 c 0.38055,0.30806 -194.26881,362.55878 -195.51754,363.86646 -0.69102,0.72364 -197.372316,47.42546 -199.728856,47.42546 -0.596932,0 5.633122,-7.00185 13.844566,-15.55967 z"
            id="path14421"/>
    <path
            style="fill:#ff0000;fill-rule:evenodd;stroke:#ffffff;stroke-width:15.3642;stroke-linejoin:bevel;stroke-miterlimit:28.2;paint-order:markers stroke fill"
            d="M 388.19491,514.65309 C 326.96988,492.5015 276.66265,474.16347 276.40108,473.90189 275.88357,473.38438 499.20244,57.519262 500,57.515266 c 0.79907,-0.004 224.13054,415.855004 223.60926,416.376284 -0.45082,0.45083 -217.96044,79.23593 -222.1487,80.46545 -1.23545,0.36269 -42.6446,-14.15279 -113.26565,-39.70391 z"
            id="path14423"/>
    <path
            style="fill:#ff0000;fill-rule:evenodd;stroke:#ffffff;stroke-width:15.3642;stroke-linejoin:bevel;stroke-miterlimit:28.2;paint-order:markers stroke fill"
            d="M 849.1709,493.62419 C 795.13406,480.84886 750.58959,470.04643 750.18318,469.6188 748.9305,468.3007 554.28688,106.04704 554.66207,105.73201 c 0.26956,-0.22633 299.05205,309.78204 381.88496,396.23317 9.11999,9.51835 13.78568,15.04012 12.65823,14.98082 -0.98208,-0.0517 -45.99754,-10.54648 -100.03436,-23.32181 z"
            id="path14425"/>
    <path
            style="fill:#ff0000;fill-rule:evenodd;stroke:#ffffff;stroke-width:15.3642;stroke-linejoin:bevel;stroke-miterlimit:28.2;paint-order:markers stroke fill"
            d="m 512.89912,758.4325 0.24596,-183.30099 113.92405,-41.20875 c 62.65823,-22.66481 114.73995,-41.21253 115.73716,-41.21716 2.44531,-0.0114 218.0531,50.72357 218.96221,51.52426 0.50964,0.44885 -407.35345,361.52185 -445.35185,394.26104 l -3.7635,3.24261 z"
            id="path14427"/>
    <path
            style="fill:#ff0000;fill-rule:evenodd;stroke:#ffffff;stroke-width:15.3642;stroke-linejoin:bevel;stroke-miterlimit:28.2;paint-order:markers stroke fill"
            d="M 262.56868,743.42178 C 139.21124,634.55405 38.296674,545.10617 38.314086,544.6487 c 0.03129,-0.82206 215.030544,-51.86788 218.693834,-51.923 1.95936,-0.0295 228.302,81.44524 229.60612,82.64945 0.40306,0.37218 0.62214,82.87172 0.48686,183.33233 l -0.24598,182.65563 z"
            id="path14429"/>
    <text><tspan
     id="tspan5231"
     style="font-style:normal;font-variant:normal;font-weight:normal;font-stretch:normal;font-size:700px;font-family:'Noto Mono';font-variant-ligatures:no-common-ligatures discretionary-ligatures;font-variant-caps:normal;font-variant-numeric:normal;font-variant-east-asian:normal;fill:#000000;fill-opacity:1;stroke:#ffffff;stroke-width:10;stroke-linejoin:bevel;stroke-dasharray:none;stroke-opacity:1;stroke-linecap:butt"
     x="300"
     y="700">NUMBER</tspan></text></svg>
