<?xml version="1.0" encoding="UTF-8" standalone="no"?>

<svg
        version="1.1"
        id="Layer_1"
        x="0px"
        y="0px"
        viewBox="0 0 1000 1000"
        enable-background="new 0 0 1000 1000"
        xml:space="preserve"
        xmlns="http://www.w3.org/2000/svg"
><defs
   id="defs15541" />
    <path
            id="XMLID_26_"
            d="m 999.9865,347.333 c -0.005,-0.23061 -0.0245,-0.45928 -0.0437,-0.68888 -0.019,-0.22273 -0.0351,-0.44494 -0.067,-0.66513 -0.0325,-0.2216 -0.0811,-0.43975 -0.12663,-0.65917 -0.0467,-0.22192 -0.0903,-0.44399 -0.15049,-0.66214 -0.0584,-0.21306 -0.13329,-0.42149 -0.20526,-0.63141 -0.0743,-0.21755 -0.14563,-0.43568 -0.23292,-0.64849 -0.0841,-0.20325 -0.1843,-0.4004 -0.28022,-0.59962 -0.10139,-0.2093 -0.19965,-0.41936 -0.31394,-0.62261 -0.10873,-0.19282 -0.23292,-0.37827 -0.35337,-0.5659 -0.12779,-0.19887 -0.25313,-0.39866 -0.39324,-0.59022 -0.0344,-0.0464 -0.0609,-0.0969 -0.0961,-0.14315 L 812.57444,96.609264 c -1.52703,-2.0138 -3.70235,-3.51159 -6.20404,-4.27104 L 503.75034,0.5363164 c -0.0736,-0.02226 -0.14936,-0.03314 -0.22368,-0.05415 -0.22551,-0.06415 -0.45412,-0.114181 -0.68336,-0.165794 -0.23842,-0.05352 -0.47501,-0.108802 -0.71529,-0.148559 -0.23041,-0.03852 -0.46269,-0.06203 -0.69559,-0.08792 -0.24028,-0.02665 -0.47929,-0.05539 -0.72021,-0.06853 -0.23718,-0.01301 -0.47435,-0.011249997 -0.71218,-0.011249997 -0.23786,1.5e-4 -0.47502,-0.002500003 -0.71221,0.011249997 -0.24091,0.01313 -0.47994,0.0419 -0.72021,0.06853 -0.2329,0.02588 -0.46457,0.04927 -0.69559,0.08779 -0.24092,0.04002 -0.47935,0.09554 -0.71836,0.149436 -0.22737,0.05128 -0.45412,0.100797 -0.67904,0.164342 -0.0743,0.02126 -0.1512,0.03226 -0.22552,0.05477 L 193.62898,92.338154 c -2.50163,0.75945 -4.67695,2.25724 -6.20463,4.27103 L 2.2754977,340.85628 c -0.036245,0.0476 -0.06328,0.0997 -0.09893,0.14778 -0.135796,0.18536 -0.2562512,0.37872 -0.3803797,0.571 -0.1253442,0.19398 -0.2537932,0.38593 -0.3656331,0.58558 -0.110597,0.19556 -0.204612,0.39794 -0.3023268,0.59931 -0.1007664,0.20741 -0.20463876,0.41285 -0.29190165,0.6248 -0.0841832,0.2038 -0.1517573,0.4127 -0.22305826,0.62097 -0.0755683,0.21888 -0.15299975,0.43616 -0.21444291,0.65847 -0.0577696,0.21037 -0.0995527,0.42415 -0.14441124,0.63781 -0.0479397,0.22757 -0.0983356,0.45397 -0.13150148,0.68365 -0.030736,0.2125 -0.04672357,0.42705 -0.06452126,0.64198 -0.02028198,0.23739 -0.04118703,0.47405 -0.04548144,0.71244 C 0.01166812,347.40966 0,347.4775 0,347.54723 V 655.8031 c 0,2.42929 0.81545015,4.79634 2.3301893,6.76249 L 182.70924,896.70537 c 0.0289,0.0378 0.0639,0.0704 0.0941,0.10793 0.14563,0.18484 0.30666,0.35726 0.46395,0.53336 0.15178,0.16997 0.29925,0.34341 0.46027,0.50394 0.16285,0.16193 0.33856,0.31056 0.51067,0.46336 0.17512,0.15502 0.34597,0.31361 0.52967,0.45816 0.17944,0.1412 0.37056,0.26845 0.558,0.39997 0.19418,0.13551 0.38464,0.27407 0.58682,0.39848 0.19483,0.12031 0.39944,0.22613 0.60163,0.33609 0.21077,0.11443 0.4197,0.23102 0.63722,0.33326 0.20586,0.0967 0.41971,0.17934 0.63172,0.26551 0.22919,0.0926 0.45718,0.18644 0.69194,0.2658 0.0651,0.0222 0.12598,0.0529 0.1923,0.0743 l 307.39052,98.5405 c 1.27818,0.4089 2.60918,0.61397 3.94143,0.61397 1.33225,0 2.66327,-0.20507 3.94137,-0.61397 l 307.39117,-98.5405 c 0.0664,-0.0212 0.12651,-0.052 0.1923,-0.0743 0.23477,-0.0794 0.46271,-0.17313 0.6913,-0.2658 0.21261,-0.0862 0.42652,-0.16877 0.63176,-0.26551 0.21813,-0.10227 0.42643,-0.21881 0.63782,-0.33326 0.20214,-0.10993 0.40686,-0.21575 0.60165,-0.33609 0.20212,-0.12444 0.39258,-0.26297 0.58682,-0.39848 0.18744,-0.13152 0.37855,-0.25877 0.55798,-0.39997 0.18312,-0.14455 0.35458,-0.30314 0.52969,-0.45816 0.17209,-0.1528 0.34775,-0.30143 0.51002,-0.46336 0.1616,-0.16053 0.30906,-0.33397 0.46085,-0.50394 0.15729,-0.1761 0.31837,-0.34852 0.464,-0.53336 0.0301,-0.0374 0.0645,-0.0701 0.094,-0.10793 L 997.66922,662.56559 c 1.51471,-1.96615 2.33026,-4.3332 2.33026,-6.76249 L 1000,347.54723 c 0,-0.0721 -0.0129,-0.14235 -0.0135,-0.21423 z M 312.82698,740.64701 291.51789,678.89207 197.14822,405.40614 500.00003,198.21677 802.85115,405.40614 708.48149,678.89207 687.17181,740.64701 Z M 795.0169,113.0924 968.19343,341.54556 819.33151,388.21 512.23045,178.11332 V 27.307923 Z m -590.03438,0 282.78646,-85.784477 V 178.11358 L 281.38787,319.30491 180.66788,388.21 31.80539,341.54556 Z M 24.460262,363.5183 30.757671,365.49227 173.04684,410.0967 290.33132,749.98832 192.84299,870.63504 24.460262,652.0655 Z M 499.99942,976.31773 212.62263,884.1942 310.00401,763.67951 H 689.99542 L 787.37617,884.1942 Z M 975.53915,652.0655 807.15645,870.63504 709.66811,749.98832 826.9526,410.0967 975.53981,363.5183 Z"
            style="stroke-width:1.71755;fill:#000000"/>
    <path
            style="fill:#ff0000;fill-rule:evenodd;stroke:#ffffff;stroke-width:15.3642;stroke-linejoin:bevel;stroke-miterlimit:28.2;paint-order:markers stroke fill"
            d="M 312.13296,736.85492 C 274.92898,630.33278 198.14983,405.67263 198.76204,405.12516 c 2.6257,-2.34803 300.46025,-205.51464 301.27666,-205.51464 0.82878,0 298.7069,203.23759 301.2025,205.50576 0.61241,0.55661 -79.075,233.73052 -113.37201,331.73864 l -1.10741,3.16455 H 500 313.23822 Z"
            id="path15660"/>
    <path
            style="fill:#ff0000;fill-rule:evenodd;stroke:#ffffff;stroke-width:15.3642;stroke-linejoin:bevel;stroke-miterlimit:28.2;paint-order:markers stroke fill"
            d="M 108.7882,760.52128 24.823166,651.53244 25.069811,507.94078 25.316456,364.34912 98.76098,387.38581 c 72.57081,22.76264 73.45886,23.07184 74.6502,25.99147 0.66312,1.62513 27.09598,77.99551 58.73967,169.71197 l 57.53399,166.75718 -46.88714,58.13423 c -25.78791,31.97383 -47.59753,58.89816 -48.4658,59.83184 -1.47675,1.58801 -6.99968,-5.339 -85.5437,-107.29122 z"
            id="path15662"/>
    <path
            style="fill:#ff0000;fill-rule:evenodd;stroke:#ffffff;stroke-width:15.3642;stroke-linejoin:bevel;stroke-miterlimit:28.2;paint-order:markers stroke fill"
            d="M 108.84719,365.21206 C 70.173705,353.02167 37.223982,342.65117 35.625581,342.1665 L 32.719398,341.2853 119.08609,227.40238 205.45278,113.51946 344.20643,71.420166 c 76.3145,-23.15461 139.73953,-42.351379 140.9445,-42.659487 l 2.19084,-0.560196 V 102.95699 177.7135 L 334.37752,282.38158 c -84.13034,57.56745 -153.47066,104.74159 -154.08958,104.83145 -0.61893,0.0899 -32.76727,-9.81059 -71.44075,-22.00097 z"
            id="path15664"/>
    <path
            style="fill:#ff0000;fill-rule:evenodd;stroke:#ffffff;stroke-width:15.3642;stroke-linejoin:bevel;stroke-miterlimit:28.2;paint-order:markers stroke fill"
            d="m 665.78289,282.54724 -153.10708,-104.8452 -0.009,-74.75078 -0.009,-74.750777 2.19084,0.555942 c 1.20497,0.305769 64.63,19.500705 140.9445,42.655414 l 138.75365,42.099471 86.36037,113.887 c 78.31971,103.28346 86.16162,113.95117 84.2259,114.57638 -12.87694,4.15907 -145.57137,45.5434 -145.85815,45.48979 -0.21196,-0.0396 -69.28356,-47.25238 -153.49245,-104.91724 z"
            id="path15666"/>
    <path
            style="fill:#ff0000;fill-rule:evenodd;stroke:#ffffff;stroke-width:15.3642;stroke-linejoin:bevel;stroke-miterlimit:28.2;paint-order:markers stroke fill"
            d="m 758.73363,809.73315 -48.41446,-59.90394 58.35068,-169.09673 c 32.09287,-93.0032 58.71215,-169.43955 59.15395,-169.85856 0.4418,-0.41902 33.66598,-11.05523 73.83151,-23.63603 l 73.02823,-22.87418 0.24665,143.59297 0.24665,143.59296 -83.01199,107.71072 c -45.65658,59.24089 -83.46306,108.31056 -84.01437,109.04371 -0.77252,1.02729 -12.10546,-12.40499 -49.41685,-58.57092 z"
            id="path15668"/>
    <path
            style="fill:#ff0000;fill-rule:evenodd;stroke:#ffffff;stroke-width:15.3642;stroke-linejoin:bevel;stroke-miterlimit:28.2;paint-order:markers stroke fill"
            d="m 356.49128,929.83051 c -78.12649,-25.10052 -142.17645,-45.76559 -142.33324,-45.92239 -0.15679,-0.15679 21.39729,-27.11875 47.89794,-59.91548 l 48.18301,-59.63042 h 189.7777 189.77769 l 48.17175,59.63818 c 29.77463,36.86195 47.73228,59.86584 47.02102,60.23429 -1.9646,1.01771 -284.69027,91.4282 -285.59437,91.32785 -0.46934,-0.0521 -64.77502,-20.63151 -142.9015,-45.73203 z"
            id="path15670"/>
    <text><tspan
     id="tspan5231"
     style="font-style:normal;font-variant:normal;font-weight:bold;font-stretch:normal;font-size:700px;font-family:'Noto Mono';font-variant-ligatures:no-common-ligatures discretionary-ligatures;font-variant-caps:normal;font-variant-numeric:normal;font-variant-east-asian:normal;fill:#000000;fill-opacity:1;stroke:#ffffff;stroke-width:10;stroke-linejoin:bevel;stroke-dasharray:none;stroke-opacity:1;stroke-linecap:butt"
      x="500" y="755" dominant-baseline="middle" text-anchor="middle"
    >DICE_VALUE</tspan></text></svg>
