<?xml version="1.0" encoding="UTF-8" standalone="no"?>

<svg
        version="1.1"
        id="Layer_1"
        x="0px"
        y="0px"
        viewBox="0 0 1000 1000"
        enable-background="new 0 0 1000 1000"
        xml:space="preserve"
        xmlns="http://www.w3.org/2000/svg"
><defs
   id="defs16068" />
    <g
            id="XMLID_1_"
            transform="matrix(1.8412449,0,0,1.6333337,-420.62283,-316.66674)">
	<path
            id="XMLID_29_"
            d="m 771.5556,338.87778 c -0.008,-0.0406 0,-0.0812 -0.008,-0.12995 0,-0.0245 0,-0.0569 -0.008,-0.0894 v -0.0487 c -0.008,-0.10568 -0.0163,-0.21136 -0.0326,-0.31692 -0.008,-0.0651 -0.016,-0.13007 -0.0243,-0.19504 -0.008,-0.0488 -0.016,-0.0894 -0.0243,-0.13822 -0.0164,-0.0812 -0.0326,-0.15435 -0.0486,-0.23562 -0.0167,-0.0894 -0.041,-0.17874 -0.0569,-0.2681 -0.0163,-0.0488 -0.0247,-0.0894 -0.041,-0.13812 -0.0159,-0.0569 -0.0323,-0.10568 -0.0486,-0.1626 -0.0326,-0.11374 -0.0732,-0.22748 -0.11383,-0.33313 0,0 0,0 0,-0.008 -0.0163,-0.0407 -0.0243,-0.0813 -0.0406,-0.12188 -0.008,-0.0325 -0.0243,-0.065 -0.0406,-0.0975 -0.0407,-0.10568 -0.0895,-0.21136 -0.13812,-0.31695 -0.0326,-0.0568 -0.0569,-0.12189 -0.0895,-0.17871 0,-0.0163 -0.008,-0.0245 -0.008,-0.0325 -0.008,-0.008 -0.0163,-0.0244 -0.0243,-0.0407 -0.049,-0.0894 -0.0975,-0.17059 -0.14643,-0.25186 -0.0486,-0.0812 -0.0892,-0.1625 -0.13812,-0.2438 -0.057,-0.0812 -0.11353,-0.16251 -0.17041,-0.24372 -0.057,-0.0813 -0.11383,-0.16256 -0.17078,-0.24377 -0.0326,-0.0325 -0.0569,-0.065 -0.0812,-0.10568 -0.041,-0.0406 -0.0812,-0.0894 -0.12214,-0.13004 -0.0569,-0.0731 -0.11383,-0.14621 -0.1784,-0.21933 -0.041,-0.0406 -0.0895,-0.0894 -0.13013,-0.13006 l -0.13812,-0.13813 c -0.0489,-0.0487 -0.0975,-0.0975 -0.15442,-0.14627 -0.0652,-0.0568 -0.13013,-0.11374 -0.19507,-0.17065 -0.0489,-0.0406 -0.0975,-0.0812 -0.15442,-0.1218 -0.0326,-0.0325 -0.0649,-0.0569 -0.0975,-0.0894 -0.0975,-0.0731 -0.20331,-0.13813 -0.30884,-0.21128 -0.0406,-0.0244 -0.0812,-0.0568 -0.12976,-0.0894 -0.19507,-0.12189 -0.39844,-0.23563 -0.60144,-0.34131 -0.008,-0.008 -0.008,-0.008 -0.0163,-0.008 L 502.98209,200.69069 c -0.0406,-0.0162 -0.0812,-0.0325 -0.12183,-0.0488 -0.13013,-0.0651 -0.26825,-0.11381 -0.40637,-0.17065 -0.12183,-0.0488 -0.25196,-0.10558 -0.38175,-0.14627 -0.13812,-0.0487 -0.27624,-0.0812 -0.4147,-0.11374 -0.13812,-0.0325 -0.26791,-0.0731 -0.40637,-0.0975 -0.13812,-0.0244 -0.27625,-0.0407 -0.41437,-0.0568 -0.13812,-0.0245 -0.27624,-0.0407 -0.42233,-0.0488 C 500.27625,200 500.14609,200 500.008,200 c -0.14612,0 -0.28458,0 -0.4307,0.008 -0.13812,0.008 -0.26825,0.0243 -0.40637,0.0406 -0.14609,0.0243 -0.28421,0.0406 -0.42233,0.065 -0.13813,0.0244 -0.26825,0.065 -0.40638,0.0975 -0.13812,0.0325 -0.27624,0.065 -0.41436,0.11374 -0.13013,0.0407 -0.25992,0.0975 -0.38175,0.14627 -0.13812,0.0568 -0.27624,0.10559 -0.40637,0.17065 -0.0406,0.0162 -0.0815,0.0326 -0.12183,0.0488 l -264.89253,132.4504 c -0.008,0 -0.008,0 -0.0163,0.008 -0.21135,0.10568 -0.40637,0.21942 -0.60141,0.34131 -0.0486,0.0325 -0.0895,0.065 -0.13014,0.0894 -0.1055,0.0731 -0.21134,0.13813 -0.30852,0.21128 -0.0326,0.0325 -0.0652,0.0569 -0.0975,0.0894 -0.0569,0.0406 -0.10585,0.0812 -0.15444,0.1218 -0.0652,0.0569 -0.13812,0.11383 -0.19504,0.17065 -0.0569,0.0488 -0.10549,0.0975 -0.15443,0.14627 -0.0489,0.0406 -0.0892,0.0894 -0.13812,0.13813 -0.0406,0.0406 -0.0895,0.0894 -0.13013,0.13006 -0.0649,0.0731 -0.12181,0.14627 -0.18671,0.21933 -0.0326,0.0407 -0.0732,0.0894 -0.11383,0.13004 -0.0243,0.0407 -0.0489,0.0731 -0.0812,0.10568 -0.0569,0.0812 -0.11383,0.16251 -0.17075,0.24377 -0.0569,0.0812 -0.11381,0.16251 -0.17073,0.24372 -0.0486,0.0813 -0.0892,0.1626 -0.13812,0.2438 -0.0486,0.0813 -0.0975,0.17066 -0.14611,0.25186 -0.008,0.0163 -0.0163,0.0325 -0.0246,0.0407 0,0.008 -0.008,0.0162 -0.008,0.0244 -0.0323,0.065 -0.0569,0.13003 -0.0892,0.18686 -0.0489,0.10559 -0.0975,0.21127 -0.13812,0.31695 -0.0163,0.0325 -0.0326,0.065 -0.0409,0.10556 -0.016,0.0326 -0.0243,0.0731 -0.0406,0.11383 v 0.008 c -0.0406,0.10565 -0.0812,0.21939 -0.11348,0.33313 -0.0163,0.0569 -0.041,0.10568 -0.0489,0.1626 -0.0163,0.0487 -0.0243,0.0893 -0.0406,0.13812 -0.0163,0.0894 -0.0406,0.17871 -0.0569,0.2681 -0.0243,0.0813 -0.0326,0.16256 -0.0486,0.23562 -0.008,0.0488 -0.0163,0.0894 -0.0243,0.13822 -0.008,0.065 -0.0167,0.12994 -0.0246,0.20318 -0.0163,0.0974 -0.0243,0.2031 -0.0323,0.30878 0,0.0162 0,0.0406 -0.008,0.065 v 0.0731 c -0.008,0.0487 -0.008,0.0894 -0.008,0.13813 v 0.48748 l 12.44849,304.01011 c 0,0.0406 0.008,0.0731 0.008,0.12188 0.008,0.0488 0,0.0894 0.008,0.14624 0.008,0.1463 0.0406,0.29254 0.0569,0.43878 0.0163,0.0976 0.0243,0.19507 0.0406,0.28449 0.0569,0.28436 0.13014,0.56879 0.21933,0.83685 0.008,0.0325 0.0243,0.0569 0.0326,0.0894 0.0895,0.24383 0.18671,0.47943 0.29254,0.70691 0.0486,0.0895 0.0975,0.17065 0.14611,0.26013 0.0895,0.17059 0.17907,0.33307 0.28457,0.48749 0.0569,0.0894 0.12181,0.17871 0.18671,0.2763 0.10583,0.13813 0.21933,0.27625 0.33314,0.41437 0.0732,0.0894 0.14646,0.17066 0.22767,0.25189 0.12181,0.13007 0.25195,0.25196 0.39006,0.37384 0.0812,0.0731 0.16241,0.14624 0.25195,0.21943 0.1461,0.12176 0.30887,0.23559 0.47127,0.34118 0.0812,0.057 0.15443,0.11383 0.23564,0.1626 0.0243,0.0162 0.0406,0.0325 0.0649,0.0406 l 252.30559,150.14013 c 0.0326,0.0162 0.0653,0.0407 0.0895,0.0569 l 0.0486,0.0244 c 0.0246,0.0162 0.041,0.0244 0.0569,0.0325 0.22766,0.13001 0.45529,0.24384 0.69095,0.34943 0.0565,0.0244 0.11346,0.0488 0.17038,0.0731 0.21136,0.0813 0.4227,0.15436 0.64203,0.21942 0.0569,0.0162 0.12216,0.0325 0.17871,0.0488 0.23565,0.065 0.47961,0.11377 0.71524,0.14618 0.0406,0.008 0.0729,0.008 0.1055,0.0164 0.27624,0.0324 0.56878,0.0569 0.85336,0.0569 0.47128,0 0.92624,-0.0488 1.3812,-0.14636 0,0 0.008,0 0.0163,0 0.19501,-0.0406 0.38208,-0.0975 0.56879,-0.15436 0.0406,-0.0162 0.0815,-0.0244 0.13013,-0.0406 0.16241,-0.0569 0.33316,-0.12189 0.49557,-0.18689 0.0569,-0.0245 0.11383,-0.0488 0.17871,-0.0732 0.14646,-0.073 0.29257,-0.1543 0.44699,-0.2356 0.0649,-0.0325 0.13013,-0.065 0.19504,-0.10559 0.13812,-0.0813 0.26825,-0.17065 0.40637,-0.26819 0.0649,-0.0488 0.12979,-0.0893 0.19504,-0.13812 0.12979,-0.0975 0.25195,-0.20318 0.38174,-0.31689 0.0569,-0.0488 0.11384,-0.0975 0.17072,-0.15448 0.12183,-0.11365 0.24362,-0.23554 0.35745,-0.35749 0.0326,-0.0406 0.0732,-0.0812 0.11383,-0.12182 0.0163,-0.0244 0.0326,-0.0488 0.0486,-0.0651 0.0326,-0.0406 0.0732,-0.073 0.10586,-0.11376 l 0.008,-0.0162 248.45416,-147.84869 c 0.50391,-0.0894 0.99951,-0.23554 1.48706,-0.4469 2.08814,-0.92633 3.53455,-2.84406 3.88403,-5.07044 0.0812,-0.34131 0.15442,-0.69079 0.17871,-1.04834 0.0327,-0.43054 0.0163,-0.86133 -0.0323,-1.28381 L 771.5556,339.37344 Z M 506.66309,217.4379 l 196.22955,98.11886 -192.76788,-51.74499 -3.46167,-0.93439 z m 249.37207,126.18533 -49.75403,130.7439 -33.2262,87.30352 L 533.38861,313.69598 513.59442,278.54382 Z M 500,281.58282 662.82434,570.66589 H 337.17532 Z m -6.66342,-64.14492 v 45.43948 l -196.22959,52.67938 z m -6.93097,61.10592 -159.46054,283.12683 -67.92343,-178.47476 -15.05716,-39.57266 z m -242.96134,101.20664 38.86585,102.12494 35.5423,93.40585 -21.8667,18.38873 -42.32717,35.59095 z m 15.57737,262.42233 65.83499,-55.36102 146.62994,181.79828 z m 240.80761,140.33228 -155.9093,-193.28797 -4.2092,-5.21686 h 320.23737 z m 29.43967,-14.83765 145.87415,-180.85565 65.49383,55.07666 z m 217.0968,-139.03223 -64.03106,-53.84955 74.2207,-195.03518 z"/>
</g>
    <path
            style="fill:#ff0000;fill-rule:evenodd;stroke:#ffffff;stroke-width:15.3642;stroke-linejoin:bevel;stroke-miterlimit:28.2;paint-order:markers stroke fill"
            d="M 105.31615,422.02247 C 63.629523,324.78451 29.671392,245.10654 29.853642,244.96033 30.352035,244.56048 473.10806,139.27834 473.27849,139.51916 c 0.25705,0.3632 -291.17243,459.23354 -291.68161,459.26732 -0.26777,0.0177 -34.5941,-79.52604 -76.28073,-176.76401 z"
            id="path16187"/>
    <path
            style="fill:#ff0000;fill-rule:evenodd;stroke:#ffffff;stroke-width:15.3642;stroke-linejoin:bevel;stroke-miterlimit:28.2;paint-order:markers stroke fill"
            d="m 46.821065,706.61958 c -0.712213,-4.68702 -18.29455,-392.49232 -17.9275,-395.41839 0.215787,-1.72022 21.780773,47.53096 67.212382,153.50297 36.792053,85.81973 67.025743,156.55195 67.185983,157.18273 0.16022,0.63079 -11.10108,9.63747 -25.02513,20.01486 -13.92405,10.3774 -40.089072,29.88491 -58.144486,43.35002 l -32.828028,24.48204 z"
            id="path16189"/>
    <path
            style="fill:#ff0000;fill-rule:evenodd;stroke:#ffffff;stroke-width:15.3642;stroke-linejoin:bevel;stroke-miterlimit:28.2;paint-order:markers stroke fill"
            d="M 251.21714,834.52582 C 146.78676,779.41912 60.557211,733.74933 59.595922,733.03739 57.885958,731.77096 74.985294,718.6455 173.87676,645.31533 l 3.62573,-2.68856 130.33347,143.36162 c 139.39726,153.33143 135.29818,148.7835 134.07143,148.75223 -0.44926,-0.0115 -86.25987,-45.10811 -190.69025,-100.2148 z"
            id="path16191"/>
    <path
            style="fill:#ff0000;fill-rule:evenodd;stroke:#ffffff;stroke-width:15.3642;stroke-linejoin:bevel;stroke-miterlimit:28.2;paint-order:markers stroke fill"
            d="M 352.99887,799.17235 206.69012,638.2668 353.34506,638.02022 c 80.66022,-0.13562 212.5224,-0.13562 293.02706,0 l 146.37213,0.24658 -146.1287,160.83171 c -80.37078,88.45744 -146.39402,160.86494 -146.71831,160.90555 -0.32428,0.0406 -66.42855,-72.33366 -146.89837,-160.83171 z"
            id="path16193"/>
    <path
            style="fill:#ff0000;fill-rule:evenodd;stroke:#ffffff;stroke-width:15.3642;stroke-linejoin:bevel;stroke-miterlimit:28.2;paint-order:markers stroke fill"
            d="M 201.75298,614.06706 C 206.45712,606.10735 499.64205,145.09849 500,145.09849 c 0.35795,0 293.54287,461.00886 298.24702,468.96857 0.6539,1.10643 -47.13745,1.31756 -298.24702,1.31756 -251.10957,0 -298.90091,-0.21113 -298.24702,-1.31756 z"
            id="path16195"/>
    <path
            style="fill:#ff0000;fill-rule:evenodd;stroke:#ffffff;stroke-width:15.3642;stroke-linejoin:bevel;stroke-miterlimit:28.2;paint-order:markers stroke fill"
            d="M 672.24143,369.23996 C 592.12028,243.00803 526.64523,139.62305 526.74132,139.49557 c 0.20157,-0.26742 442.89535,105.03511 443.42401,105.47622 0.47046,0.39257 -151.14185,353.85775 -151.76221,353.81462 -0.26777,-0.0186 -66.04053,-103.31452 -146.16169,-229.54645 z"
            id="path16197"/>
    <path
            style="fill:#ff0000;fill-rule:evenodd;stroke:#ffffff;stroke-width:15.3642;stroke-linejoin:bevel;stroke-miterlimit:28.2;paint-order:markers stroke fill"
            d="m 895.34363,665.93885 c -30.78398,-23.00403 -56.57382,-42.42847 -57.31077,-43.16541 -1.13739,-1.13739 8.79345,-24.97449 65.70797,-157.71953 l 67.04787,-156.37961 0.20458,6.5684 c 0.39176,12.57793 -17.70059,391.98764 -18.70506,392.2588 -0.53554,0.14458 -26.1606,-18.55862 -56.94459,-41.56265 z"
            id="path16199"/>
    <path
            style="fill:#ff0000;fill-rule:evenodd;stroke:#ffffff;stroke-width:15.3642;stroke-linejoin:bevel;stroke-miterlimit:28.2;paint-order:markers stroke fill"
            d="m 559.97567,931.64604 c 4.35171,-5.02454 256.09604,-282.02888 259.28981,-285.30693 l 3.51933,-3.6122 36.51412,27.26896 c 20.08276,14.99794 46.93142,35.0115 59.66369,44.47458 l 23.14957,17.20561 -3.18852,1.63787 c -1.75369,0.90083 -87.9277,46.37595 -191.49781,101.05584 -103.57011,54.67988 -188.53334,99.41796 -188.80719,99.41796 -0.27385,0 0.3368,-0.96377 1.357,-2.14169 z"
            id="path16201"/>
    <path
            style="fill:#ff0000;fill-rule:evenodd;stroke:#ffffff;stroke-width:15.3642;stroke-linejoin:bevel;stroke-miterlimit:28.2;paint-order:markers stroke fill"
            d="M 687.43914,153.9429 513.14508,112.35281 512.88969,76.020761 c -0.24116,-34.306296 -0.15972,-36.304144 1.46056,-35.831592 1.99884,0.582954 349.13161,154.570811 349.73609,155.142681 0.22313,0.2111 -0.21504,0.34273 -0.97371,0.29248 -0.75869,-0.0502 -79.81175,-18.80687 -175.67349,-41.68143 z"
            id="path16203"/>
    <path
            style="fill:#ff0000;fill-rule:evenodd;stroke:#ffffff;stroke-width:15.3642;stroke-linejoin:bevel;stroke-miterlimit:28.2;paint-order:markers stroke fill"
            d="m 139.72736,193.54324 c 14.20351,-6.51016 344.51115,-152.941291 345.92239,-153.353415 1.6203,-0.473177 1.70172,1.525181 1.46056,35.847655 l -0.25539,36.34877 -174.78092,41.64296 c -96.1295,22.90363 -175.21908,41.61583 -175.75462,41.58267 -0.53554,-0.0332 0.99805,-0.96405 3.40798,-2.06864 z"
            id="path16205"/>
    <text><tspan
     id="tspan5231"
     style="font-style:normal;font-variant:normal;font-weight:normal;font-stretch:normal;font-size:700px;font-family:'Noto Mono';font-variant-ligatures:no-common-ligatures discretionary-ligatures;font-variant-caps:normal;font-variant-numeric:normal;font-variant-east-asian:normal;fill:#000000;fill-opacity:1;stroke:#ffffff;stroke-width:10;stroke-linejoin:bevel;stroke-dasharray:none;stroke-opacity:1;stroke-linecap:butt"
     x="300"
     y="700">NUMBER</tspan></text></svg>
