<?xml version="1.0" encoding="UTF-8" standalone="no"?>
<svg
        version="1.1"
        id="Layer_1"
        x="0px"
        y="0px"
        viewBox="0 0 1000 1000"
        enable-background="new 0 0 1000 1000"
        xml:space="preserve"
        xmlns="http://www.w3.org/2000/svg"
><defs
   id="defs7"><linearGradient
     id="linearGradient2843"><stop
       style="stop-color:#000000;stop-opacity:1;"
       offset="0"
       id="stop2841" /></linearGradient><linearGradient
        id="linearGradient848"><stop
       style="stop-color:#000000;stop-opacity:1;"
       offset="0"
       id="stop846" /></linearGradient></defs>
    <g
            id="XMLID_1_"
            transform="matrix(1.6861481,0,0,1.666666,-343.07404,-333.33297)">
	<path
            id="XMLID_20_"
            d="M 795.28857,617.55365 505.66534,202.94617 c -0.0149,-0.0213 -0.0338,-0.0381 -0.0489,-0.0592 -0.12344,-0.17265 -0.26586,-0.32951 -0.40478,-0.49026 -0.10095,-0.11676 -0.19418,-0.24159 -0.30182,-0.35053 -0.13653,-0.1382 -0.29028,-0.25825 -0.43845,-0.38481 -0.12811,-0.10921 -0.24948,-0.22726 -0.38436,-0.32631 -0.14307,-0.10502 -0.30063,-0.19079 -0.45227,-0.28497 -0.15686,-0.0973 -0.30878,-0.2027 -0.47239,-0.2869 -0.14358,-0.0739 -0.29846,-0.12838 -0.44809,-0.19262 -0.1875,-0.0804 -0.37216,-0.16623 -0.56588,-0.2296 -0.0256,-0.008 -0.0483,-0.0219 -0.074,-0.03 -0.13037,-0.041 -0.26309,-0.0568 -0.39435,-0.0898 -0.19958,-0.0502 -0.39712,-0.1045 -0.6008,-0.13681 -0.16613,-0.0262 -0.33157,-0.0329 -0.4978,-0.047 -0.1961,-0.0168 -0.39071,-0.0377 -0.58856,-0.0375 -0.1731,2.6e-4 -0.34332,0.0198 -0.51511,0.033 -0.19018,0.0144 -0.37942,0.0232 -0.56942,0.0537 -0.18335,0.0294 -0.36103,0.0795 -0.54099,0.12344 -0.14722,0.0359 -0.29574,0.0549 -0.44183,0.10086 -0.0281,0.009 -0.0527,0.0235 -0.0806,0.0326 -0.17837,0.0586 -0.34808,0.13855 -0.52127,0.21147 -0.1644,0.0693 -0.3335,0.12969 -0.49045,0.21068 -0.15155,0.0781 -0.29193,0.17647 -0.43768,0.26589 -0.16327,0.10025 -0.33167,0.19279 -0.48505,0.30546 -0.12866,0.0945 -0.24411,0.20729 -0.36657,0.31111 -0.15409,0.13082 -0.31321,0.25573 -0.45481,0.39896 -0.10589,0.10721 -0.19748,0.23012 -0.29693,0.34497 -0.14029,0.16216 -0.28412,0.32065 -0.4087,0.49487 -0.015,0.021 -0.034,0.0379 -0.0489,0.0591 L 204.71143,617.55365 c -1.10097,1.57605 -1.49558,3.53949 -1.0889,5.41876 0.40651,1.87934 1.57779,3.50379 3.23204,4.48425 l 289.62298,171.57868 c 0.0179,0.0107 0.0374,0.0175 0.0555,0.028 0.0158,0.009 0.0295,0.021 0.0454,0.03 0.13187,0.0752 0.27048,0.13141 0.40574,0.19721 0.12402,0.0602 0.24505,0.12823 0.3717,0.18072 0.17084,0.0709 0.34625,0.12311 0.5209,0.17963 0.11347,0.0366 0.2244,0.0825 0.33909,0.1131 0.20068,0.0537 0.40466,0.0872 0.60849,0.12249 0.0927,0.0161 0.18411,0.0417 0.27725,0.054 0.2982,0.0391 0.59819,0.0596 0.89839,0.0596 0.30008,0 0.60007,-0.0205 0.89825,-0.0596 0.0939,-0.0123 0.18558,-0.0381 0.2789,-0.0543 0.20331,-0.0352 0.40677,-0.0687 0.60703,-0.12213 0.11468,-0.0306 0.22552,-0.0764 0.3389,-0.11304 0.17474,-0.0565 0.35025,-0.10876 0.52118,-0.17969 0.12674,-0.0525 0.24783,-0.12048 0.37197,-0.18078 0.13514,-0.0658 0.27359,-0.12207 0.40537,-0.19715 0.0159,-0.009 0.0296,-0.0208 0.0454,-0.03 0.018,-0.0105 0.0375,-0.0173 0.0555,-0.028 L 793.14545,627.45667 c 1.65423,-0.98047 2.8255,-2.60492 3.23199,-4.48426 0.40674,-1.87927 0.0121,-3.84271 -1.08887,-5.41876 z M 493.08936,228.86349 V 780.96323 L 220.30771,619.36145 Z M 506.91064,780.9632 V 228.86349 l 272.78162,390.49796 z"/>
</g>
    <path
            style="fill:#ff0000;fill-rule:evenodd;stroke:#ffffff;stroke-width:15.3581;stroke-linejoin:bevel;paint-order:markers fill stroke"
            d="M 284.40086,847.56419 C 174.21139,782.9148 71.922045,722.96548 57.091228,714.34348 L 30.126078,698.66711 257.88602,376.39828 C 383.15399,199.15043 486.12977,53.651247 486.72113,53.06673 c 0.59134,-0.584517 1.07516,204.45587 1.07516,455.64529 0,251.18942 -0.68644,456.63796 -1.52546,456.55228 -0.83901,-0.0858 -91.68049,-53.05073 -201.86997,-117.70011 z"
            id="path305"/>
    <path
            style="fill:#ff0000;fill-rule:evenodd;stroke:#ffffff;stroke-width:15.3581;stroke-linejoin:bevel;paint-order:markers fill stroke"
            d="m 512.20375,508.64501 c 0,-258.10063 0.76736,-455.944339 1.76428,-454.865134 0.97037,1.050468 103.9674,146.611104 228.8823,323.468064 199.00799,281.75944 226.66973,321.80359 223.49614,323.54151 -1.99201,1.09086 -104.54676,61.07903 -227.89944,133.307 -123.35269,72.22801 -224.71987,131.32361 -225.26044,131.32361 -0.54056,0 -0.98284,-205.54876 -0.98284,-456.77505 z"
            id="path307"/>
    <text><tspan
     id="tspan5231"
     style="font-style:normal;font-variant:normal;font-weight:bold;font-stretch:normal;font-size:700px;font-family:'Noto Mono';font-variant-ligatures:no-common-ligatures discretionary-ligatures;font-variant-caps:normal;font-variant-numeric:normal;font-variant-east-asian:normal;fill:#000000;fill-opacity:1;stroke:#ffffff;stroke-width:10;stroke-linejoin:bevel;stroke-dasharray:none;stroke-opacity:1;stroke-linecap:butt"
      x="500" y="755" dominant-baseline="middle" text-anchor="middle"
    >DICE_VALUE</tspan></text></svg>

