<?xml version="1.0" encoding="UTF-8" standalone="no"?>

<svg
        version="1.1"
        id="Layer_1"
        x="0px"
        y="0px"
        viewBox="0 0 1000 1000"
        enable-background="new 0 0 1000 1000"
        xml:space="preserve"
        xmlns="http://www.w3.org/2000/svg"
><defs
   id="defs11865" />
    <g
            id="XMLID_1_"
            transform="matrix(1.7258583,0,0,1.6666667,-362.92914,-333.33333)">
	<path
            id="XMLID_35_"
            d="m 760.69806,352.84958 c -0.009,-0.0965 -0.006,-0.19199 -0.0192,-0.28818 -0.05,-0.37649 -0.14019,-0.74206 -0.24926,-1.10104 -0.0369,-0.12119 -0.079,-0.23993 -0.12287,-0.35996 -0.12823,-0.35138 -0.27673,-0.69378 -0.45892,-1.01898 -0.0148,-0.0264 -0.0214,-0.0548 -0.0365,-0.0811 -0.0138,-0.024 -0.0335,-0.0423 -0.0476,-0.066 -0.19256,-0.32502 -0.41809,-0.6286 -0.66168,-0.91913 -0.079,-0.0943 -0.15784,-0.18662 -0.24103,-0.27579 -0.26007,-0.27872 -0.53582,-0.54367 -0.84204,-0.77866 -0.0622,-0.0477 -0.13006,-0.0843 -0.19378,-0.12973 -0.18348,-0.13131 -0.36646,-0.26339 -0.56421,-0.37762 L 503.47885,200.93227 c -2.15262,-1.24303 -4.80508,-1.24303 -6.9577,0 L 242.73903,347.4534 c -0.19779,0.11423 -0.38074,0.24631 -0.56423,0.37762 -0.0637,0.0454 -0.13156,0.0821 -0.1938,0.12973 -0.3062,0.23499 -0.58198,0.49994 -0.84199,0.77866 -0.0832,0.0892 -0.16199,0.18149 -0.24103,0.27579 -0.24364,0.29053 -0.46915,0.59411 -0.66173,0.91913 -0.0141,0.0237 -0.0337,0.0421 -0.0476,0.066 -0.0152,0.0263 -0.0217,0.0547 -0.0365,0.0811 -0.18218,0.3252 -0.33074,0.6676 -0.45893,1.01898 -0.0438,0.12003 -0.086,0.23877 -0.12289,0.35996 -0.10903,0.35898 -0.19925,0.72455 -0.24927,1.10104 -0.0127,0.0962 -0.0105,0.19171 -0.0191,0.28818 -0.019,0.20889 -0.0418,0.41714 -0.0418,0.6293 v 293.04224 c 0,2.48602 1.32624,4.78253 3.47887,6.02551 l 253.78212,146.52112 c 0.21042,0.12152 0.42908,0.22119 0.64819,0.31897 0.0534,0.0239 0.10254,0.0545 0.15671,0.0772 0.36783,0.1532 0.74692,0.26355 1.13052,0.35089 0.10202,0.0232 0.2042,0.0421 0.30786,0.0607 C 499.17358,799.9494 499.58582,800 500,800 c 0.41418,0 0.82642,-0.0506 1.23557,-0.12457 0.10366,-0.0186 0.20584,-0.0375 0.30786,-0.0607 0.3836,-0.0873 0.76269,-0.19769 1.13052,-0.35089 0.0542,-0.0226 0.1033,-0.0532 0.15671,-0.0772 0.21911,-0.0978 0.43777,-0.19745 0.64819,-0.31897 L 757.26099,652.54663 c 2.15258,-1.24298 3.47882,-3.53949 3.47882,-6.02551 V 353.47888 c 0,-0.21216 -0.0228,-0.42041 -0.0417,-0.6293 z M 500,214.99203 739.86871,353.47986 500,491.96603 260.13126,353.47986 Z M 253.1757,365.53207 493.04227,504.01703 V 780.99091 L 253.1757,642.50439 Z M 506.95773,780.99091 V 504.01703 L 746.82428,365.53207 v 276.97232 z"/>
</g>
    <path
            style="fill:#ff0000;fill-rule:evenodd;stroke:#ffffff;stroke-width:15.3581;stroke-linejoin:bevel;paint-order:markers fill stroke"
            d="M 280.30276,851.40468 74.889634,736.93608 74.863426,507.70855 c -0.01391,-126.07513 0.387209,-229.22752 0.892487,-229.22752 1.437332,0 406.339987,225.75212 408.705387,227.87234 1.67296,1.49951 2.01879,48.97555 1.68049,230.70397 l -0.42594,228.81593 z"
            id="path12122"/>
    <path
            style="fill:#ff0000;fill-rule:evenodd;stroke:#ffffff;stroke-width:15.3581;stroke-linejoin:bevel;paint-order:markers fill stroke"
            d="m 513.85822,736.49998 0.42589,-229.8892 204.17896,-113.97373 C 830.7615,329.95148 923.20917,278.6223 923.90238,278.57216 c 0.6932,-0.0502 1.25128,103.06126 1.24017,229.13639 l -0.0203,229.22753 -171.76465,95.74814 C 658.88704,885.34569 566.25679,936.97263 547.51257,947.41077 l -34.08034,18.97841 z"
            id="path12124"/>
    <path
            style="fill:#ff0000;fill-rule:evenodd;stroke:#ffffff;stroke-width:15.3581;stroke-linejoin:bevel;paint-order:markers fill stroke"
            d="M 294.14057,370.83834 C 182.30428,308.41063 90.600859,256.76247 90.355196,256.06467 89.930005,254.85695 494.73729,28.27464 499.11576,27.269626 c 2.66621,-0.612009 410.08236,226.421234 410.08236,228.518984 0,1.85416 -406.63709,228.84856 -409.6468,228.67453 -1.13963,-0.0658 -93.57449,-51.19706 -205.41075,-113.6248 z"
            id="path12126"/>
    <text><tspan
     id="tspan5231"
     style="font-style:normal;font-variant:normal;font-weight:normal;font-stretch:normal;font-size:700px;font-family:'Noto Mono';font-variant-ligatures:no-common-ligatures discretionary-ligatures;font-variant-caps:normal;font-variant-numeric:normal;font-variant-east-asian:normal;fill:#000000;fill-opacity:1;stroke:#ffffff;stroke-width:10;stroke-linejoin:bevel;stroke-dasharray:none;stroke-opacity:1;stroke-linecap:butt"
     x="300"
     y="700">NUMBER</tspan></text></svg>
