<?xml version="1.0" encoding="UTF-8" standalone="no"?>

<svg
        version="1.1"
        id="Layer_1"
        x="0px"
        y="0px"
        viewBox="0 0 1000 1000"
        enable-background="new 0 0 1000 1000"
        xml:space="preserve"
        xmlns="http://www.w3.org/2000/svg"
><defs
   id="defs12718" />
    <g
            id="XMLID_1_"
            transform="matrix(1.8217905,0,0,1.6666666,-410.89547,-333.33331)">
	<path
            id="XMLID_24_"
            d="m 760.33337,648.81854 c 0.056,-0.1607 0.11878,-0.31854 0.16297,-0.48358 0.0425,-0.15814 0.0655,-0.3194 0.0964,-0.47949 0.026,-0.13489 0.0615,-0.26691 0.0796,-0.40387 0.0371,-0.28174 0.0541,-0.56537 0.0563,-0.84894 1.8e-4,-0.0179 0.004,-0.0353 0.004,-0.0532 V 353.45065 c 0,-2.46591 -1.31555,-4.74377 -3.45062,-5.97674 L 503.45059,200.92451 c -0.013,-0.007 -0.0269,-0.0123 -0.0401,-0.0197 -0.2493,-0.14183 -0.50659,-0.26987 -0.77218,-0.37978 -0.10993,-0.0455 -0.22419,-0.0753 -0.336,-0.11478 -0.17182,-0.061 -0.34156,-0.12735 -0.5184,-0.17476 -0.13523,-0.0361 -0.27341,-0.0546 -0.41022,-0.0824 -0.15775,-0.0322 -0.31345,-0.0722 -0.47434,-0.0934 -0.22366,-0.0294 -0.4487,-0.0373 -0.67373,-0.0447 -0.0756,-0.003 -0.14945,-0.015 -0.22574,-0.015 -0.0759,0 -0.14978,0.0125 -0.22556,0.015 -0.22503,0.007 -0.45025,0.0153 -0.67392,0.0447 -0.16052,0.0212 -0.31622,0.0612 -0.47415,0.0934 -0.13681,0.0278 -0.27481,0.0463 -0.41003,0.0824 -0.17704,0.0474 -0.34677,0.11373 -0.51874,0.17476 -0.11166,0.0395 -0.22574,0.0693 -0.336,0.11478 -0.26562,0.10991 -0.52273,0.23795 -0.77222,0.37978 -0.0128,0.007 -0.0269,0.0122 -0.0399,0.0197 l -253.83107,146.5494 c -2.13527,1.23297 -3.45067,3.51083 -3.45067,5.97674 v 293.09879 c 0,0.30139 0.0206,0.60272 0.0598,0.90216 0.0177,0.13361 0.0524,0.26239 0.0777,0.39398 0.0314,0.1637 0.0551,0.32837 0.0985,0.48999 0.0434,0.16193 0.10507,0.31696 0.16004,0.47467 0.0438,0.12604 0.078,0.25446 0.12916,0.37842 0.11269,0.27154 0.24272,0.53497 0.3887,0.78961 0.004,0.007 0.007,0.0147 0.0108,0.0217 0.002,0.005 0.006,0.008 0.008,0.0128 0.14876,0.25634 0.31398,0.50323 0.49481,0.73877 0.0815,0.10607 0.17509,0.1997 0.26231,0.30041 0.10939,0.12671 0.21308,0.258 0.33184,0.37683 0.11703,0.11695 0.24636,0.21881 0.37085,0.32666 0.10281,0.0889 0.19833,0.18463 0.30687,0.26789 0.21636,0.16601 0.44418,0.31506 0.67823,0.45416 0.0253,0.0149 0.0473,0.0339 0.0728,0.0487 L 496.54941,799.0755 c 1.06766,0.61609 2.25924,0.9245 3.4505,0.9245 1.19144,0 2.38302,-0.30841 3.45068,-0.9245 L 757.28168,652.52618 c 0.0341,-0.0197 0.0634,-0.0448 0.097,-0.065 0.22492,-0.13501 0.44525,-0.27759 0.65381,-0.43762 0.11237,-0.0862 0.21155,-0.18536 0.31781,-0.27777 0.12049,-0.1048 0.24634,-0.20325 0.35974,-0.31665 0.12274,-0.12293 0.23023,-0.25849 0.34326,-0.38983 0.0829,-0.0966 0.17304,-0.18586 0.2511,-0.28736 0.18097,-0.2359 0.34601,-0.48309 0.49512,-0.7398 0.002,-0.004 0.006,-0.008 0.008,-0.0122 0.004,-0.007 0.007,-0.0146 0.0107,-0.0217 0.14581,-0.25464 0.276,-0.51806 0.38849,-0.78961 0.0503,-0.12122 0.0834,-0.24683 0.1264,-0.37012 z M 746.92981,620.79358 518.85486,225.75632 746.92981,357.43488 Z m -5.05231,18.85461 H 258.12213 L 499.99991,220.70367 Z M 481.14511,225.75632 253.07018,620.79346 V 357.43488 Z m 18.8548,559.37326 -228.07562,-131.67896 h 456.15145 z"/>
</g>
    <path
            style="fill:#ff0000;fill-rule:evenodd;stroke:#ffffff;stroke-width:15.779;stroke-linejoin:bevel;paint-order:markers fill stroke;stroke-linecap:butt;stroke-miterlimit:28.2;stroke-dasharray:none"
            d="M 63.405294,728.41612 C 80.31652,699.87048 498.83629,39.110697 500.00562,39.110697 c 1.17121,0 420.14926,661.496073 436.59195,689.305423 1.59713,2.70122 -19.73406,2.83998 -436.5978,2.83998 -416.864971,0 -438.194774,-0.13883 -436.594476,-2.83998 z"
            id="path12837"/>
    <path
            style="fill:#ff0000;fill-rule:evenodd;stroke:#ffffff;stroke-width:15.779;stroke-linejoin:bevel;paint-order:fill markers stroke;stroke-dasharray:none"
            d="M 51.204257,479.60433 V 263.00612 L 255.64569,154.95005 C 368.08847,95.519196 460.36499,47.100913 460.70461,47.353862 461.35877,47.841114 55.359366,692.02817 52.738839,694.66083 c -0.864258,0.8683 -1.534582,-93.06939 -1.534582,-215.0565 z"
            id="path12839"/>
    <path
            style="fill:#ff0000;fill-rule:evenodd;stroke:#ffffff;stroke-width:15.7793;stroke-linejoin:bevel;paint-order:markers fill stroke"
            d="M 294.18907,865.49123 91.039156,758.03311 295.51947,757.62061 c 112.46416,-0.22686 296.5308,-0.22686 409.03697,0 l 204.55666,0.4125 -202.77176,107.10809 c -111.52446,58.90945 -204.17365,107.2656 -205.8871,107.45811 -1.71342,0.19252 -94.53274,-48.0061 -206.26517,-107.10808 z"
            id="path12841"/>
    <path
            style="fill:#ff0000;fill-rule:evenodd;stroke:#ffffff;stroke-width:15.779;stroke-linejoin:bevel;paint-order:markers fill stroke;stroke-dasharray:none"
            d="M 743.08315,371.67841 C 630.66627,193.54717 538.96412,47.592562 539.3006,47.334863 539.63711,47.077162 631.91107,95.482829 744.35385,154.903 l 204.44144,108.03667 v 216.30687 c 0,118.96878 -0.29649,216.30688 -0.65888,216.30688 -0.36239,0 -92.63635,-145.74377 -205.05326,-323.87501 z"
            id="path12843"/>
    <text><tspan
     id="tspan5231"
     style="font-style:normal;font-variant:normal;font-weight:normal;font-stretch:normal;font-size:700px;font-family:'Noto Mono';font-variant-ligatures:no-common-ligatures discretionary-ligatures;font-variant-caps:normal;font-variant-numeric:normal;font-variant-east-asian:normal;fill:#000000;fill-opacity:1;stroke:#ffffff;stroke-width:10;stroke-linejoin:bevel;stroke-dasharray:none;stroke-opacity:1;stroke-linecap:butt"
     x="300"
     y="700">NUMBER</tspan></text></svg>
